<svg width="24" height="24" viewBox="0 0 24 24" fill="none" xmlns="http://www.w3.org/2000/svg">
<g clip-path="url(#clip0_5523_61777)">
<path d="M21.8906 12.2222C21.8906 17.7462 17.4131 22.2222 11.8906 22.2222C6.36817 22.2222 1.89062 17.7462 1.89062 12.2222C1.89062 6.70132 6.36817 2.22217 11.8906 2.22217C17.4131 2.22217 21.8906 6.70132 21.8906 12.2222ZM11.8906 14.2383C10.8662 14.2383 10.0358 15.0687 10.0358 16.0931C10.0358 17.1175 10.8662 17.948 11.8906 17.948C12.915 17.948 13.7455 17.1175 13.7455 16.0931C13.7455 15.0687 12.915 14.2383 11.8906 14.2383ZM10.1296 7.57112L10.4287 13.055C10.4427 13.3116 10.6549 13.5125 10.9119 13.5125H12.8694C13.1264 13.5125 13.3385 13.3116 13.3525 13.055L13.6516 7.57112C13.6668 7.29394 13.4461 7.06088 13.1685 7.06088H10.6127C10.3351 7.06088 10.1145 7.29394 10.1296 7.57112Z" fill="#D65745"/>
</g>
<defs>
<clipPath id="clip0_5523_61777">
<rect width="20" height="20" fill="white" transform="translate(1.89062 2.22217)"/>
</clipPath>
</defs>
</svg>
