<svg width="24" height="24" viewBox="0 0 24 24" fill="none" xmlns="http://www.w3.org/2000/svg">
<g clip-path="url(#clip0_5523_61769)">
<path d="M21.7969 12.1111C21.7969 17.4614 17.4596 21.7986 12.1094 21.7986C6.7591 21.7986 2.42188 17.4614 2.42188 12.1111C2.42188 6.76081 6.7591 2.42358 12.1094 2.42358C17.4596 2.42358 21.7969 6.76081 21.7969 12.1111ZM10.9888 17.2405L18.1763 10.053C18.4204 9.80898 18.4204 9.41323 18.1763 9.16917L17.2925 8.2853C17.0484 8.0412 16.6527 8.0412 16.4086 8.2853L10.5469 14.1469L7.81019 11.4103C7.56613 11.1662 7.17039 11.1662 6.92629 11.4103L6.04242 12.2941C5.79836 12.5382 5.79836 12.9339 6.04242 13.178L10.1049 17.2405C10.349 17.4846 10.7447 17.4846 10.9888 17.2405Z" fill="#55B938"/>
</g>
<defs>
<clipPath id="clip0_5523_61769">
<rect width="20" height="20" fill="white" transform="translate(2.10938 2.11108)"/>
</clipPath>
</defs>
</svg>
